<svg width="206.615723" height="53.561523" viewBox="0 0 206.616 53.5615" fill="none" xmlns="http://www.w3.org/2000/svg" xmlns:xlink="http://www.w3.org/1999/xlink">
	<desc>
			Created with Pixso.
	</desc>
	<defs/>
	<path id="矢量 32" d="M181.8 19.08L178.95 24.28L164.91 24.28L164.91 33.27L174.01 33.27L165.16 49.29L172.55 53.34L181.28 37.48L201.36 53.56L206.61 47.01L189.5 33.27L205.37 33.27L205.37 24.28L188.57 24.28L191.38 19.08L204.01 19.08L204.01 10.04L196.37 10.04L199.54 4.31L192.15 0.25L186.74 10.04L178.33 10.04L182.27 8.11L178.33 0L170.84 3.64L173.96 10.04L166.32 10.04L166.32 19.08L181.8 19.08ZM157.84 2.5L157.84 52.67L150.82 52.67L150.82 11.28L130.63 11.28L130.63 8.26L125.39 14.29L124.87 13.83L124.87 52.41L117.48 52.41L117.48 13.72L124.72 13.72L117.48 7.38L123.1 0.93L130.63 7.54L130.63 2.5L157.84 2.5ZM8.04 6.55Q9.55 6.49 11.64 6.58Q13.74 6.67 16.08 7.18Q18.42 7.69 20.72 8.75Q21.11 8.92 21.48 9.12L21.48 9.12L21.49 9.12L21.49 9.12Q23.36 10.09 24.96 11.59Q25.81 12.44 26.67 13.61Q27.55 14.77 28.18 16.37Q28.81 17.96 29.13 19.97Q29.47 21.98 29.22 24.44Q29.22 24.67 29.07 25.84Q28.93 27.01 28.33 28.64Q27.72 30.25 26.52 32.08Q25.32 33.91 23.29 35.48Q22.96 35.73 22.63 35.97Q18.53 38.84 12.42 38.84Q11.52 38.84 10.56 38.78Q9.6 38.72 8.58 38.6L8.58 51.55L0 51.55L0 6.55L8.04 6.55ZM60.37 7.4L68.7 9.73L56.46 53.24L42.91 53.24L31.32 9.67L39.67 7.46L49.56 44.59L49.92 44.59L60.37 7.4ZM81.71 25.75L81.71 17.17L98.11 17.17L98.11 8.53L73.09 8.53L73.09 51.61L98.52 51.61L98.52 42.98L81.71 42.98L81.71 34.4L96.79 34.4L96.79 25.75L81.71 25.75ZM139.48 37.38L139.48 44.15L141.4 44.15L141.4 34.42L128.19 34.42L128.19 22.57L134.64 22.57L134.64 27.09L139.48 27.09L139.48 21.26L127.1 21.26L127.1 13.52L146.81 13.52L146.81 27.09L148.37 27.09L148.37 51.22L136.98 51.22L136.98 45.29L126.63 45.29L126.63 37.38L139.48 37.38ZM20.63 23.78Q20.77 22.27 20.61 21.23Q20.46 20.17 20.15 19.49Q19.86 18.8 19.52 18.42Q19.2 18.02 19.02 17.83Q18.12 16.94 16.77 16.39Q16.25 16.19 15.73 16.02L15.73 16.02Q14.87 15.75 13.98 15.59Q12.55 15.31 11.13 15.22Q9.72 15.13 8.58 15.13L8.58 29.84Q10.92 30.25 13.53 30.16Q15.68 30.09 17.33 29.14L17.33 29.14L17.33 29.14L17.33 29.14Q17.68 28.94 18 28.7Q18.91 28.04 19.4 27.21Q19.92 26.36 20.18 25.61Q20.46 24.86 20.55 24.32L20.63 23.78Z" fill="#E9F1FF" fill-opacity="1.000000" fill-rule="evenodd"/>
</svg>
