<svg width="196.213379" height="48.855469" viewBox="0 0 196.213 48.8555" fill="none" xmlns="http://www.w3.org/2000/svg" xmlns:xlink="http://www.w3.org/1999/xlink">
	<desc>
			Created with Pixso.
	</desc>
	<defs/>
	<path id="矢量 31" d="M189.11 48.18L196.21 38.06L191.7 34.88L188.19 39.83L187.67 34.69L195.93 25.28L190.79 20.77L186.7 25.42L186.13 20.39L195.59 18.94L194.49 11.41L185.37 12.76L183.97 0L177.35 0.66L178.69 13.76L176.63 14.06L177.79 21.64L179.51 21.35L180.66 32.29L174.95 38.87L174.95 20.06L168.86 20.06L168.86 14.25L175.29 14.25L175.29 6.04L168.86 6.04L168.86 0.23L162.47 0.23L162.47 20.06L158.15 20.06L158.15 47.61L174.95 47.61L174.95 38.91L180.08 43.38L181.67 41.61L182.44 48.85L189.11 48.18ZM149.51 17.51L149.51 48L136.78 48L136.78 39.55L142.36 39.55L142.36 17.51L132.13 17.51L132.13 8.73L142.36 8.73L142.36 0.28L149.51 0.28L149.51 8.73L153.25 8.73L153.25 17.51L149.51 17.51ZM190.45 1.42L185.46 4.55L189.88 11.66L194.87 8.54L190.45 1.42ZM8.04 1.76Q9.55 1.7 11.64 1.79Q13.74 1.87 16.08 2.39Q18.42 2.9 20.72 3.95Q21.11 4.13 21.49 4.32Q23.36 5.3 24.96 6.8Q25.81 7.65 26.67 8.82Q27.55 9.98 28.18 11.57Q28.81 13.17 29.13 15.18Q29.47 17.18 29.22 19.64Q29.22 19.88 29.07 21.05Q28.93 22.22 28.33 23.85Q27.72 25.46 26.52 27.29Q25.32 29.12 23.29 30.69Q22.97 30.94 22.63 31.17L22.63 31.17Q18.53 34.04 12.42 34.04Q11.52 34.04 10.56 33.98Q9.6 33.93 8.58 33.81L8.58 46.76L0 46.76L0 1.76L8.04 1.76ZM84.6 1.79Q82.51 1.7 81 1.76L72.96 1.76L72.96 46.76L81.54 46.76L81.54 33.81Q82.56 33.93 83.52 33.98Q84.48 34.04 85.38 34.04Q91.49 34.04 95.59 31.17Q95.92 30.94 96.25 30.69Q98.28 29.12 99.48 27.29Q100.68 25.46 101.29 23.85Q101.89 22.22 102.03 21.05Q102.18 19.88 102.18 19.64Q102.43 17.18 102.09 15.18Q101.77 13.17 101.14 11.57Q100.51 9.98 99.63 8.82Q98.77 7.65 97.92 6.8Q96.32 5.3 94.45 4.32L94.44 4.32Q94.07 4.13 93.68 3.95Q91.38 2.9 89.04 2.39Q86.7 1.87 84.6 1.79ZM60.37 2.61L68.7 4.94L56.46 48.44L42.91 48.44L31.32 4.88L39.67 2.67L49.56 39.8L49.92 39.8L60.37 2.61ZM113.75 46.6L118.74 29.56L112.31 19.72L118.64 15.59L121.53 20.06L123.88 12.04L113.61 12.04L113.61 3.59L131.08 3.59L131.08 12.04L126.52 27.69L133.67 38.73L127.39 42.8L123.73 37.19L120.38 48.57L113.75 46.6ZM20.63 18.98Q20.77 17.48 20.61 16.44Q20.46 15.38 20.15 14.69Q19.86 14 19.52 13.62Q19.2 13.23 19.02 13.04Q18.12 12.14 16.77 11.6Q16.25 11.4 15.73 11.23L15.73 11.23Q14.87 10.96 13.98 10.8Q12.55 10.52 11.13 10.43Q9.72 10.34 8.58 10.34L8.58 25.05Q10.92 25.46 13.53 25.37Q15.69 25.3 17.33 24.35L17.33 24.35L17.33 24.35L17.33 24.34Q17.68 24.14 18 23.91Q18.91 23.25 19.4 22.41Q19.92 21.56 20.18 20.82Q20.46 20.07 20.55 19.53L20.63 18.98ZM93.57 16.44Q93.73 17.48 93.59 18.98L93.51 19.53Q93.42 20.07 93.14 20.82Q92.88 21.56 92.36 22.41Q91.87 23.25 90.96 23.91Q90.64 24.14 90.29 24.35Q88.65 25.3 86.49 25.37Q83.88 25.46 81.54 25.05L81.54 10.34Q82.68 10.34 84.09 10.43Q85.51 10.52 86.94 10.8Q87.83 10.96 88.69 11.23L88.69 11.23Q89.22 11.4 89.73 11.6Q91.08 12.14 91.98 13.04Q92.16 13.23 92.48 13.62Q92.82 14 93.11 14.69Q93.42 15.38 93.57 16.44ZM130.94 22.74L137.13 20.34L141.88 32.58L135.64 34.99L130.94 22.74ZM169.14 28.26L169.14 39.3L164.05 39.3L164.05 28.26L169.14 28.26Z" fill="#E9F1FF" fill-opacity="1.000000" fill-rule="evenodd"/>
</svg>
