<svg width="23.000000" height="23.000000" viewBox="0 0 23 23" fill="none" xmlns="http://www.w3.org/2000/svg" xmlns:xlink="http://www.w3.org/1999/xlink">
	<desc>
			Created with Pixso.
	</desc>
	<defs>
		<linearGradient x1="-6.639523" y1="6.639525" x2="6.639528" y2="29.639526" id="paint_linear_97_573_0" gradientUnits="userSpaceOnUse">
			<stop stop-color="#012597"/>
			<stop offset="1.000000" stop-color="#0C4DD7"/>
		</linearGradient>
		<linearGradient x1="25.820518" y1="15.337065" x2="15.337059" y2="-2.820833" id="paint_linear_97_574_0" gradientUnits="userSpaceOnUse">
			<stop stop-color="#7ABCFF"/>
			<stop offset="1.000000" stop-color="#1B91EA"/>
		</linearGradient>
		<linearGradient x1="0.043428" y1="8.430199" x2="8.430196" y2="22.956512" id="paint_linear_97_575_0" gradientUnits="userSpaceOnUse">
			<stop stop-color="#7FC3FF"/>
			<stop offset="1.000000" stop-color="#4DB2FF"/>
		</linearGradient>
		<linearGradient x1="16.341925" y1="13.315866" x2="16.341925" y2="10.289551" id="paint_linear_97_576_0" gradientUnits="userSpaceOnUse">
			<stop stop-color="#1A50C5"/>
			<stop offset="1.000000" stop-color="#417DE5"/>
		</linearGradient>
	</defs>
	<path id="路径" d="M23 11.5C23 17.85 17.85 23 11.5 23C5.14 23 0 17.85 0 11.5C0 5.14 5.14 0 11.5 0C17.85 0 23 5.14 23 11.5Z" fill="url(#paint_linear_97_573_0)" fill-opacity="1.000000" fill-rule="evenodd"/>
	<path id="路径" d="M20.57 11.5C20.57 16.51 16.51 20.57 11.5 20.57C6.48 20.57 2.42 16.51 2.42 11.5C2.42 6.48 6.48 2.42 11.5 2.42C16.51 2.42 20.57 6.48 20.57 11.5Z" fill="url(#paint_linear_97_574_0)" fill-opacity="1.000000" fill-rule="evenodd"/>
	<path id="路径" d="M18.76 11.5C18.76 15.51 15.51 18.76 11.5 18.76C7.48 18.76 4.23 15.51 4.23 11.5C4.23 7.48 7.48 4.23 11.5 4.23C15.51 4.23 18.76 7.48 18.76 11.5Z" fill="url(#paint_linear_97_575_0)" fill-opacity="1.000000" fill-rule="evenodd"/>
	<path id="路径" d="M7.25 10.28L15.74 10.28C16.07 10.28 16.34 10.55 16.34 10.88L16.34 12.71C16.34 13.04 16.07 13.31 15.74 13.31L7.25 13.31C6.92 13.31 6.65 13.04 6.65 12.71L6.65 10.88C6.65 10.55 6.92 10.28 7.25 10.28Z" fill="url(#paint_linear_97_576_0)" fill-opacity="1.000000" fill-rule="evenodd"/>
</svg>
