<svg width="1341.000000" height="610.000000" viewBox="0 0 1341 610" fill="none" xmlns="http://www.w3.org/2000/svg" xmlns:xlink="http://www.w3.org/1999/xlink">
	<desc>
			Created with Pixso.
	</desc>
	<defs>
		<filter id="filter_158_587_dd" x="0.000000" y="0.000000" width="1341.000000" height="610.000000" filterUnits="userSpaceOnUse" color-interpolation-filters="sRGB">
			<feFlood flood-opacity="0" result="BackgroundImageFix"/>
			<feGaussianBlur in="BackgroundImage" stdDeviation="9.78581"/>
			<feComposite in2="SourceAlpha" operator="in" result="effect_backgroundBlur_1"/>
			<feBlend mode="normal" in="SourceGraphic" in2="effect_backgroundBlur_1" result="shape"/>
		</filter>
		<linearGradient x1="670.500000" y1="0.000000" x2="670.500000" y2="608.450378" id="paint_linear_158_587_0" gradientUnits="userSpaceOnUse">
			<stop stop-color="#73C6FF"/>
			<stop offset="1.000000" stop-color="#766CFF"/>
		</linearGradient>
		<linearGradient x1="1033.090820" y1="46.020576" x2="1033.090820" y2="609.999939" id="paint_linear_158_587_1" gradientUnits="userSpaceOnUse">
			<stop stop-color="#000000"/>
			<stop offset="0.816794" stop-color="#000000"/>
		</linearGradient>
		<linearGradient x1="18.515173" y1="29.484829" x2="29.484829" y2="48.484829" id="paint_linear_158_589_0" gradientUnits="userSpaceOnUse">
			<stop stop-color="#012597"/>
			<stop offset="1.000000" stop-color="#0C4DD7"/>
		</linearGradient>
		<linearGradient x1="45.330120" y1="36.669876" x2="36.669872" y2="21.669872" id="paint_linear_158_590_0" gradientUnits="userSpaceOnUse">
			<stop stop-color="#7ABCFF"/>
			<stop offset="1.000000" stop-color="#1B91EA"/>
		</linearGradient>
		<linearGradient x1="24.035892" y1="30.964100" x2="30.964096" y2="42.964096" id="paint_linear_158_591_0" gradientUnits="userSpaceOnUse">
			<stop stop-color="#7FC3FF"/>
			<stop offset="1.000000" stop-color="#4DB2FF"/>
		</linearGradient>
		<linearGradient x1="37.500000" y1="35.000000" x2="37.500000" y2="32.500000" id="paint_linear_158_592_0" gradientUnits="userSpaceOnUse">
			<stop stop-color="#1A50C5"/>
			<stop offset="1.000000" stop-color="#417DE5"/>
		</linearGradient>
		<linearGradient x1="17.360477" y1="569.639526" x2="30.639530" y2="592.639526" id="paint_linear_158_595_0" gradientUnits="userSpaceOnUse">
			<stop stop-color="#012597"/>
			<stop offset="1.000000" stop-color="#0C4DD7"/>
		</linearGradient>
		<linearGradient x1="49.820518" y1="578.337036" x2="39.337059" y2="560.179138" id="paint_linear_158_596_0" gradientUnits="userSpaceOnUse">
			<stop stop-color="#7ABCFF"/>
			<stop offset="1.000000" stop-color="#1B91EA"/>
		</linearGradient>
		<linearGradient x1="24.043428" y1="571.430176" x2="32.430199" y2="585.956482" id="paint_linear_158_597_0" gradientUnits="userSpaceOnUse">
			<stop stop-color="#7FC3FF"/>
			<stop offset="1.000000" stop-color="#4DB2FF"/>
		</linearGradient>
		<linearGradient x1="40.341927" y1="576.315857" x2="40.341927" y2="573.289551" id="paint_linear_158_598_0" gradientUnits="userSpaceOnUse">
			<stop stop-color="#1A50C5"/>
			<stop offset="1.000000" stop-color="#417DE5"/>
		</linearGradient>
		<linearGradient x1="1287.360474" y1="30.639526" x2="1300.639526" y2="53.639526" id="paint_linear_158_601_0" gradientUnits="userSpaceOnUse">
			<stop stop-color="#012597"/>
			<stop offset="1.000000" stop-color="#0C4DD7"/>
		</linearGradient>
		<linearGradient x1="1319.820557" y1="39.337067" x2="1309.336914" y2="21.179167" id="paint_linear_158_602_0" gradientUnits="userSpaceOnUse">
			<stop stop-color="#7ABCFF"/>
			<stop offset="1.000000" stop-color="#1B91EA"/>
		</linearGradient>
		<linearGradient x1="1294.043457" y1="32.430199" x2="1302.430176" y2="46.956512" id="paint_linear_158_603_0" gradientUnits="userSpaceOnUse">
			<stop stop-color="#7FC3FF"/>
			<stop offset="1.000000" stop-color="#4DB2FF"/>
		</linearGradient>
		<linearGradient x1="1310.341919" y1="37.315868" x2="1310.341919" y2="34.289551" id="paint_linear_158_604_0" gradientUnits="userSpaceOnUse">
			<stop stop-color="#1A50C5"/>
			<stop offset="1.000000" stop-color="#417DE5"/>
		</linearGradient>
		<linearGradient x1="1287.360474" y1="569.639526" x2="1300.639526" y2="592.639526" id="paint_linear_158_607_0" gradientUnits="userSpaceOnUse">
			<stop stop-color="#012597"/>
			<stop offset="1.000000" stop-color="#0C4DD7"/>
		</linearGradient>
		<linearGradient x1="1319.820557" y1="578.337036" x2="1309.336914" y2="560.179138" id="paint_linear_158_608_0" gradientUnits="userSpaceOnUse">
			<stop stop-color="#7ABCFF"/>
			<stop offset="1.000000" stop-color="#1B91EA"/>
		</linearGradient>
		<linearGradient x1="1294.043457" y1="571.430176" x2="1302.430176" y2="585.956482" id="paint_linear_158_609_0" gradientUnits="userSpaceOnUse">
			<stop stop-color="#7FC3FF"/>
			<stop offset="1.000000" stop-color="#4DB2FF"/>
		</linearGradient>
		<linearGradient x1="1310.341919" y1="576.315857" x2="1310.341919" y2="573.289551" id="paint_linear_158_610_0" gradientUnits="userSpaceOnUse">
			<stop stop-color="#1A50C5"/>
			<stop offset="1.000000" stop-color="#417DE5"/>
		</linearGradient>
	</defs>
	<g opacity="0.560000" filter="url(#filter_158_587_dd)">
		<rect id="矩形备份 12" rx="12.600000" width="1341.000000" height="610.000000" fill="#FFFFFF" fill-opacity="0"/>
		<rect id="矩形备份 12" rx="12.600000" width="1341.000000" height="610.000000" fill="url(#paint_linear_158_587_0)" fill-opacity="0"/>
		<rect id="矩形备份 12" rx="12.600000" width="1341.000000" height="610.000000" fill="url(#paint_linear_158_587_1)" fill-opacity="1.000000"/>
	</g>
	<rect id="矩形备份 12" x="0.299805" y="0.299805" rx="12.600000" width="1340.400024" height="609.400024" stroke="#885FFF" stroke-opacity="0" stroke-width="0.600000"/>
	<path id="路径" d="M43 33.5C43 38.74 38.74 43 33.5 43C28.25 43 24 38.74 24 33.5C24 28.25 28.25 24 33.5 24C38.74 24 43 28.25 43 33.5Z" fill="url(#paint_linear_158_589_0)" fill-opacity="1.000000" fill-rule="evenodd"/>
	<path id="路径" d="M41 33.5C41 37.64 37.64 41 33.5 41C29.35 41 26 37.64 26 33.5C26 29.35 29.35 26 33.5 26C37.64 26 41 29.35 41 33.5Z" fill="url(#paint_linear_158_590_0)" fill-opacity="1.000000" fill-rule="evenodd"/>
	<path id="路径" d="M39.5 33.5C39.5 36.81 36.81 39.5 33.5 39.5C30.18 39.5 27.5 36.81 27.5 33.5C27.5 30.18 30.18 27.5 33.5 27.5C36.81 27.5 39.5 30.18 39.5 33.5Z" fill="url(#paint_linear_158_591_0)" fill-opacity="1.000000" fill-rule="evenodd"/>
	<path id="路径" d="M30.1 32.5L36.89 32.5C37.23 32.5 37.5 32.76 37.5 33.1L37.5 34.39C37.5 34.73 37.23 35 36.89 35L30.1 35C29.76 35 29.5 34.73 29.5 34.39L29.5 33.1C29.5 32.76 29.76 32.5 30.1 32.5Z" fill="url(#paint_linear_158_592_0)" fill-opacity="1.000000" fill-rule="evenodd"/>
	<path id="路径" d="M47 574.5C47 580.85 41.85 586 35.5 586C29.14 586 24 580.85 24 574.5C24 568.14 29.14 563 35.5 563C41.85 563 47 568.14 47 574.5Z" fill="url(#paint_linear_158_595_0)" fill-opacity="1.000000" fill-rule="evenodd"/>
	<path id="路径" d="M44.57 574.5C44.57 579.51 40.51 583.57 35.5 583.57C30.48 583.57 26.42 579.51 26.42 574.5C26.42 569.48 30.48 565.42 35.5 565.42C40.51 565.42 44.57 569.48 44.57 574.5Z" fill="url(#paint_linear_158_596_0)" fill-opacity="1.000000" fill-rule="evenodd"/>
	<path id="路径" d="M42.76 574.5C42.76 578.51 39.51 581.76 35.5 581.76C31.48 581.76 28.23 578.51 28.23 574.5C28.23 570.48 31.48 567.23 35.5 567.23C39.51 567.23 42.76 570.48 42.76 574.5Z" fill="url(#paint_linear_158_597_0)" fill-opacity="1.000000" fill-rule="evenodd"/>
	<path id="路径" d="M31.25 573.28L39.74 573.28C40.07 573.28 40.34 573.55 40.34 573.89L40.34 575.71C40.34 576.04 40.07 576.31 39.74 576.31L31.25 576.31C30.92 576.31 30.65 576.04 30.65 575.71L30.65 573.89C30.65 573.55 30.92 573.28 31.25 573.28Z" fill="url(#paint_linear_158_598_0)" fill-opacity="1.000000" fill-rule="evenodd"/>
	<path id="路径" d="M1317 35.5C1317 41.85 1311.85 47 1305.5 47C1299.15 47 1294 41.85 1294 35.5C1294 29.14 1299.15 24 1305.5 24C1311.85 24 1317 29.14 1317 35.5Z" fill="url(#paint_linear_158_601_0)" fill-opacity="1.000000" fill-rule="evenodd"/>
	<path id="路径" d="M1314.58 35.5C1314.58 40.51 1310.51 44.57 1305.5 44.57C1300.49 44.57 1296.42 40.51 1296.42 35.5C1296.42 30.48 1300.49 26.42 1305.5 26.42C1310.51 26.42 1314.58 30.48 1314.58 35.5Z" fill="url(#paint_linear_158_602_0)" fill-opacity="1.000000" fill-rule="evenodd"/>
	<path id="路径" d="M1312.76 35.5C1312.76 39.51 1309.51 42.76 1305.5 42.76C1301.49 42.76 1298.24 39.51 1298.24 35.5C1298.24 31.48 1301.49 28.23 1305.5 28.23C1309.51 28.23 1312.76 31.48 1312.76 35.5Z" fill="url(#paint_linear_158_603_0)" fill-opacity="1.000000" fill-rule="evenodd"/>
	<path id="路径" d="M1301.26 34.28L1309.74 34.28C1310.06 34.28 1310.34 34.55 1310.34 34.88L1310.34 36.71C1310.34 37.04 1310.06 37.31 1309.74 37.31L1301.26 37.31C1300.93 37.31 1300.66 37.04 1300.66 36.71L1300.66 34.88C1300.66 34.55 1300.93 34.28 1301.26 34.28Z" fill="url(#paint_linear_158_604_0)" fill-opacity="1.000000" fill-rule="evenodd"/>
	<path id="路径" d="M1317 574.5C1317 580.85 1311.85 586 1305.5 586C1299.15 586 1294 580.85 1294 574.5C1294 568.14 1299.15 563 1305.5 563C1311.85 563 1317 568.14 1317 574.5Z" fill="url(#paint_linear_158_607_0)" fill-opacity="1.000000" fill-rule="evenodd"/>
	<path id="路径" d="M1314.58 574.5C1314.58 579.51 1310.51 583.57 1305.5 583.57C1300.49 583.57 1296.42 579.51 1296.42 574.5C1296.42 569.48 1300.49 565.42 1305.5 565.42C1310.51 565.42 1314.58 569.48 1314.58 574.5Z" fill="url(#paint_linear_158_608_0)" fill-opacity="1.000000" fill-rule="evenodd"/>
	<path id="路径" d="M1312.76 574.5C1312.76 578.51 1309.51 581.76 1305.5 581.76C1301.49 581.76 1298.24 578.51 1298.24 574.5C1298.24 570.48 1301.49 567.23 1305.5 567.23C1309.51 567.23 1312.76 570.48 1312.76 574.5Z" fill="url(#paint_linear_158_609_0)" fill-opacity="1.000000" fill-rule="evenodd"/>
	<path id="路径" d="M1301.26 573.28L1309.74 573.28C1310.06 573.28 1310.34 573.55 1310.34 573.89L1310.34 575.71C1310.34 576.04 1310.06 576.31 1309.74 576.31L1301.26 576.31C1300.93 576.31 1300.66 576.04 1300.66 575.71L1300.66 573.89C1300.66 573.55 1300.93 573.28 1301.26 573.28Z" fill="url(#paint_linear_158_610_0)" fill-opacity="1.000000" fill-rule="evenodd"/>
</svg>
