<svg xmlns="http://www.w3.org/2000/svg" width="124" height="124" fill="none"><defs><filter id="a" width="98.437" height="98.438" x="13.282" y="13.23" color-interpolation-filters="sRGB" filterUnits="userSpaceOnUse"><feFlood flood-opacity="0" result="BackgroundImageFix"/><feBlend in="SourceGraphic" in2="BackgroundImageFix" result="shape"/><feGaussianBlur result="effect_layerBlur_1" stdDeviation=".906"/></filter><filter id="b" width="124" height="124" x="0" y="0" color-interpolation-filters="sRGB" filterUnits="userSpaceOnUse"><feFlood flood-opacity="0" result="BackgroundImageFix"/><feColorMatrix in="SourceAlpha" result="hardAlpha" values="0 0 0 0 0 0 0 0 0 0 0 0 0 0 0 0 0 0 127 0"/><feOffset/><feGaussianBlur stdDeviation="7.333"/><feComposite in2="hardAlpha" k2="-1" k3="1" operator="out"/><feColorMatrix values="0 0 0 0 1 0 0 0 0 1 0 0 0 0 1 0 0 0 0.5 0"/><feBlend in2="BackgroundImageFix" result="effect_dropShadow_1"/><feBlend in="SourceGraphic" in2="effect_dropShadow_1" result="shape"/></filter><linearGradient id="c" x1="113.156" x2="22" y1="102" y2="22" gradientUnits="userSpaceOnUse"><stop stop-color="#FF3A00"/><stop offset="1" stop-color="#FF4FFA"/></linearGradient></defs><g filter="url(#a)" opacity=".631"><path fill="#D5FFDB" fill-opacity=".737" fill-rule="evenodd" d="M62.5 15.94c25.68 0 46.5 20.82 46.5 46.5 0 25.69-20.82 46.5-46.5 46.5-25.69 0-46.5-20.81-46.5-46.5 0-25.68 20.81-46.5 46.5-46.5"/></g><g filter="url(#b)"><path d="M62 22c22.09 0 40 17.9 40 40 0 22.09-17.91 40-40 40-22.1 0-40-17.91-40-40 0-22.1 17.9-40 40-40"/><path d="M62 22c22.09 0 40 17.9 40 40 0 22.09-17.91 40-40 40-22.1 0-40-17.91-40-40 0-22.1 17.9-40 40-40"/><path fill="url(#c)" fill-rule="evenodd" d="M62 22c22.09 0 40 17.9 40 40 0 22.09-17.91 40-40 40-22.1 0-40-17.91-40-40 0-22.1 17.9-40 40-40"/></g><rect width="4" height="28" x="51" y="48.949" fill="#FFF" rx="2"/><rect width="3" height="27" x="51.5" y="49.449" rx="1.5"/><rect width="4" height="28" x="69" y="48.949" fill="#FFF" rx="2"/><rect width="3" height="27" x="69.5" y="49.449" rx="1.5"/></svg>