<svg xmlns="http://www.w3.org/2000/svg" width="124" height="124" fill="none"><defs><linearGradient id="c" x1="29.926" x2="94.004" y1="30.089" y2="101.999" gradientUnits="userSpaceOnUse"><stop stop-color="#5FABFD"/><stop offset="1" stop-color="#7355FF"/></linearGradient><linearGradient id="d" x1="48.348" x2="76.983" y1="55.234" y2="55.234" gradientUnits="userSpaceOnUse"><stop stop-color="#FFF"/><stop offset="1" stop-color="#FFF"/></linearGradient><linearGradient id="e" x1="38.897" x2="89.008" y1="72.807" y2="72.807" gradientUnits="userSpaceOnUse"><stop stop-color="#FFF"/><stop offset="1" stop-color="#FFF"/></linearGradient><filter id="a" width="98.437" height="98.437" x="13.231" y="13.231" color-interpolation-filters="sRGB" filterUnits="userSpaceOnUse"><feFlood flood-opacity="0" result="BackgroundImageFix"/><feBlend in="SourceGraphic" in2="BackgroundImageFix" result="shape"/><feGaussianBlur result="effect_layerBlur_1" stdDeviation=".906"/></filter><filter id="b" width="124" height="124" x="0" y="0" color-interpolation-filters="sRGB" filterUnits="userSpaceOnUse"><feFlood flood-opacity="0" result="BackgroundImageFix"/><feColorMatrix in="SourceAlpha" result="hardAlpha" values="0 0 0 0 0 0 0 0 0 0 0 0 0 0 0 0 0 0 127 0"/><feOffset/><feGaussianBlur stdDeviation="7.333"/><feComposite in2="hardAlpha" k2="-1" k3="1" operator="out"/><feColorMatrix values="0 0 0 0 1 0 0 0 0 1 0 0 0 0 1 0 0 0 0.5 0"/><feBlend in2="BackgroundImageFix" result="effect_dropShadow_1"/><feBlend in="SourceGraphic" in2="effect_dropShadow_1" result="shape"/></filter></defs><g filter="url(#a)" opacity=".631"><path fill="#D5E5FF" fill-opacity=".706" fill-rule="evenodd" d="M62.44 15.94c25.69 0 46.5 20.82 46.5 46.5 0 25.69-20.81 46.5-46.5 46.5-25.68 0-46.5-20.81-46.5-46.5 0-25.68 20.82-46.5 46.5-46.5"/></g><g filter="url(#b)"><path d="M62 22c22.09 0 40 17.9 40 40 0 22.09-17.91 40-40 40-22.1 0-40-17.91-40-40 0-22.1 17.9-40 40-40"/><path d="M62 22c22.09 0 40 17.9 40 40 0 22.09-17.91 40-40 40-22.1 0-40-17.91-40-40 0-22.1 17.9-40 40-40"/><path fill="url(#c)" fill-rule="evenodd" d="M62 22c22.09 0 40 17.9 40 40 0 22.09-17.91 40-40 40-22.1 0-40-17.91-40-40 0-22.1 17.9-40 40-40"/></g><path fill="url(#d)" fill-rule="evenodd" d="M61.52 68.52c4.71 0 8.57-3.74 8.57-8.31v-9.96c0-4.57-3.86-8.31-8.57-8.31-4.72 0-8.58 3.74-8.58 8.31v9.96c0 4.57 3.86 8.31 8.58 8.31"/><path fill="url(#e)" fill-rule="evenodd" d="M75.52 61.68c-.92-.13-1.78.47-1.92 1.35-.89 5.47-5.89 9.58-11.66 9.58-5.76 0-10.77-4.12-11.65-9.58-.14-.89-1-1.49-1.92-1.35-.92.13-1.55.96-1.41 1.84 1.07 6.6 6.53 11.53 13.3 12.23v4.96h-5.05c-.93 0-1.69.72-1.69 1.62 0 .89.76 1.61 1.69 1.61h13.47c.93 0 1.69-.72 1.69-1.61 0-.9-.76-1.62-1.69-1.62h-5.05v-4.96c6.76-.7 12.23-5.62 13.29-12.22.15-.89-.48-1.71-1.4-1.85"/></svg>