<svg width="889.000000" height="157.000000" viewBox="0 0 889 157" fill="none" xmlns="http://www.w3.org/2000/svg" xmlns:xlink="http://www.w3.org/1999/xlink">
	<desc>
			Created with Pixso.
	</desc>
	<defs>
		<linearGradient x1="444.500000" y1="0.000000" x2="444.500000" y2="157.000000" id="paint_linear_77_526_0" gradientUnits="userSpaceOnUse">
			<stop offset="0.045802" stop-color="#FFFFFF"/>
			<stop offset="1.000000" stop-color="#0095FF" stop-opacity="0.964706"/>
		</linearGradient>
	</defs>
	<path id="矩形 38" d="M18 0L879 0C884.52 0 889 4.47 889 10L889 147C889 152.52 884.52 157 879 157L18 157C12.47 157 8 152.52 8 147L8 93.48C8 90.94 7.02 88.5 5.37 86.56C3.04 83.8 0 79.85 0 78C0 76.36 2.38 73.62 4.55 71.47C6.65 69.38 8 66.6 8 63.63L8 10C8 4.47 12.47 0 18 0Z" fill="#050505" fill-opacity="0.677619" fill-rule="evenodd"/>
	<path id="矩形 38 (边框)" d="M879 0L18 0C12.47 0 8 4.47 8 10L8 63.63C8 66.6 6.65 69.38 4.55 71.47C2.38 73.62 0 76.36 0 78C0 79.85 3.04 83.8 5.37 86.56C7.02 88.5 8 90.94 8 93.48L8 147C8 152.52 12.47 157 18 157L879 157C884.52 157 889 152.52 889 147L889 10C889 4.47 884.52 0 879 0ZM879 4L18 4C17.17 4 16.4 4.14 15.69 4.43C14.98 4.73 14.34 5.17 13.75 5.75C13.17 6.34 12.73 6.98 12.43 7.69C12.14 8.4 12 9.17 12 10L12 63.63C12 65.2 11.77 66.68 11.31 68.1C10.58 70.36 9.26 72.43 7.37 74.31C5.12 76.54 4 77.77 4 78C4 78.49 5.47 80.48 8.43 83.98C9.84 85.65 10.83 87.44 11.41 89.36C11.8 90.67 12 92.05 12 93.48L12 147C12 147.82 12.14 148.59 12.43 149.3C12.73 150 13.17 150.65 13.75 151.24C14.34 151.82 14.98 152.26 15.69 152.56C16.4 152.85 17.17 153 18 153L879 153C879.82 153 880.59 152.85 881.3 152.56C882.01 152.26 882.65 151.82 883.24 151.24C883.82 150.65 884.26 150 884.56 149.3C884.85 148.59 885 147.82 885 147L885 10C885 9.17 884.85 8.4 884.56 7.69C884.26 6.98 883.82 6.34 883.24 5.75C882.65 5.17 882.01 4.73 881.3 4.43C880.59 4.14 879.82 4 879 4Z" fill="url(#paint_linear_77_526_0)" fill-opacity="1.000000" fill-rule="evenodd"/>
</svg>
