<svg width="159.157715" height="44.916016" viewBox="0 0 159.158 44.916" fill="none" xmlns="http://www.w3.org/2000/svg" xmlns:xlink="http://www.w3.org/1999/xlink">
	<desc>
			Created with Pixso.
	</desc>
	<defs>
		<filter id="filter_77_347_dd" x="0.000000" y="0.000000" width="159.157715" height="44.916016" filterUnits="userSpaceOnUse" color-interpolation-filters="sRGB">
			<feFlood flood-opacity="0" result="BackgroundImageFix"/>
			<feColorMatrix in="SourceAlpha" type="matrix" values="0 0 0 0 0 0 0 0 0 0 0 0 0 0 0 0 0 0 127 0" result="hardAlpha"/>
			<feOffset dx="0" dy="4"/>
			<feGaussianBlur stdDeviation="2.66667"/>
			<feComposite in2="hardAlpha" operator="out" k2="-1" k3="1"/>
			<feColorMatrix type="matrix" values="0 0 0 0 0 0 0 0 0 0 0 0 0 0 0 0 0 0 0.5 0"/>
			<feBlend mode="normal" in2="BackgroundImageFix" result="effect_dropShadow_1"/>
			<feBlend mode="normal" in="SourceGraphic" in2="effect_dropShadow_1" result="shape"/>
		</filter>
	</defs>
	<g filter="url(#filter_77_347_dd)">
		<path id="GENIUS" d="M22.71 9.43Q18.8 9.43 16.83 11.39L16.83 11.39Q16.61 11.61 16.41 11.86Q14.47 14.28 14.47 18.48Q14.47 20.52 14.95 22.18Q15.44 23.84 16.39 25.04C17.03 25.83 17.83 26.45 18.79 26.9Q20.23 27.55 22.16 27.55Q23.19 27.55 23.93 27.51C24.43 27.48 24.86 27.43 25.23 27.35L25.23 17.72L31.47 17.72L31.47 31.44Q30.35 31.88 27.87 32.37Q25.4 32.87 21.75 32.87Q18.63 32.87 16.09 31.91C14.4 31.28 12.95 30.35 11.75 29.12Q9.96 27.28 8.97 24.6Q8 21.91 8 18.48Q8 14.99 9.07 12.32Q10.15 9.63 12.03 7.77Q12.69 7.12 13.43 6.58L13.43 6.58Q14.8 5.58 16.45 4.96Q16.61 4.9 16.77 4.84L16.78 4.84L16.78 4.84Q19.17 4 21.87 4Q23.83 4 25.41 4.26Q26.99 4.51 28.13 4.85Q29.27 5.2 30.01 5.56C30.5 5.8 30.86 5.98 31.07 6.11L29.27 11.11C28.42 10.66 27.44 10.26 26.33 9.93Q24.67 9.43 22.71 9.43ZM142.41 27.38C141.84 27.53 141.11 27.6 140.24 27.6C138.47 27.6 136.98 27.42 135.77 27.06C134.56 26.7 133.54 26.29 132.72 25.83L130.96 30.79C131.33 31.01 131.79 31.23 132.33 31.48C132.88 31.72 133.53 31.94 134.29 32.16C135.05 32.37 135.92 32.54 136.91 32.69C137.89 32.84 139 32.91 140.24 32.91C143.89 32.91 146.62 32.2 148.43 30.77Q149.39 30.01 150.02 29.04Q151.15 27.26 151.15 24.76C151.15 23.42 150.98 22.29 150.64 21.36Q150.35 20.59 149.91 19.93Q149.54 19.39 149.05 18.92Q147.99 17.87 146.39 17.1Q144.8 16.32 142.64 15.52Q141.59 15.16 140.73 14.82Q139.87 14.47 139.21 14.05C138.77 13.77 138.44 13.46 138.19 13.12C137.95 12.77 137.83 12.34 137.83 11.84C137.83 10.98 138.16 10.35 138.81 9.94Q139.8 9.32 142.03 9.32C143.37 9.32 144.5 9.47 145.45 9.78C146.4 10.08 147.26 10.43 148.04 10.83L149.83 5.92C148.96 5.44 147.84 5 146.48 4.6C145.11 4.2 143.5 4 141.63 4C140.06 4 138.65 4.19 137.39 4.58C136.14 4.97 135.07 5.52 134.19 6.24C133.31 6.96 132.63 7.83 132.15 8.86C131.67 9.88 131.44 11.03 131.44 12.32Q131.44 14.24 132.11 15.58Q132.7 16.73 133.57 17.58Q133.72 17.72 133.87 17.85C134.59 18.48 135.4 19 136.31 19.41C137.22 19.83 138.13 20.19 139.03 20.52Q142.15 21.55 143.43 22.45C144.29 23.05 144.72 23.81 144.72 24.72C144.72 25.14 144.65 25.53 144.51 25.88C144.38 26.23 144.14 26.52 143.79 26.78C143.44 27.03 142.99 27.23 142.41 27.38ZM37.28 4.63L37.28 32.35L56.91 32.35L56.91 27.11L43.52 27.11L43.52 20.43L54.59 20.43L54.59 15.31L43.52 15.31L43.52 9.87L56 9.87L56 4.63L37.28 4.63ZM80.11 32.35Q77.43 27.6 74.31 22.96Q71.19 18.31 67.67 14.19L67.67 32.35L61.52 32.35L61.52 4.63L66.59 4.63C67.47 5.52 68.45 6.6 69.51 7.88C70.58 9.16 71.67 10.52 72.78 11.97C73.88 13.43 74.98 14.93 76.08 16.5Q77.72 18.84 79.15 21L79.15 4.63L85.35 4.63L85.35 32.35L80.11 32.35ZM98 4.63L91.76 4.63L91.76 32.35L98 32.35L98 4.63ZM115.24 32.91Q112.32 32.91 110.2 32.09C108.78 31.54 107.62 30.79 106.69 29.82C105.77 28.84 105.09 27.68 104.65 26.34C104.21 24.99 104 23.5 104 21.88L104 4.63L110.24 4.63L110.24 21.36C110.24 22.48 110.36 23.43 110.62 24.22C110.87 25 111.22 25.64 111.65 26.13C112.1 26.63 112.63 26.98 113.25 27.2C113.88 27.41 114.57 27.51 115.31 27.51Q116.97 27.51 118.17 26.77L118.17 26.77Q118.62 26.5 119.01 26.11C119.96 25.18 120.43 23.6 120.43 21.36L120.43 4.63L126.67 4.63L126.67 21.88C126.67 23.5 126.44 25 125.99 26.36Q125.47 27.91 124.53 29.14Q124.24 29.51 123.91 29.85C122.98 30.83 121.79 31.59 120.35 32.12C118.91 32.65 117.21 32.91 115.24 32.91Z" fill="#FFFFFF" fill-opacity="1.000000" fill-rule="evenodd"/>
	</g>
</svg>
